<svg width="21" height="25" fill="none" xmlns="http://www.w3.org/2000/svg"><path fill-rule="evenodd" clip-rule="evenodd" d="M7.398 3.135v1.288h6.408V3.13c-1.313-1.26-2.604-1.5-3.702-1.333-1.11.17-2.085.77-2.706 1.338Zm7.908 1.288V3.02a1.24 1.24 0 0 0-.365-.879C13.264.482 11.469.071 9.878.314 8.33.551 7.044 1.393 6.27 2.137a1.224 1.224 0 0 0-.372.883v1.403H3.071a1.75 1.75 0 0 0-1.746 1.645L.315 22.895a1.75 1.75 0 0 0 1.747 1.855h17.08a1.75 1.75 0 0 0 1.747-1.855l-1.01-16.827a1.75 1.75 0 0 0-1.747-1.645h-2.826Zm-1.5 1.5V9.29h1.5V5.923h2.826a.25.25 0 0 1 .25.235l1.01 16.827a.25.25 0 0 1-.25.265H2.062a.25.25 0 0 1-.25-.265l1.01-16.827a.25.25 0 0 1 .25-.235h2.826V9.29h1.5V5.923h6.408Z" fill="#7E839C"/></svg>
