<svg width="22" height="24" fill="none" xmlns="http://www.w3.org/2000/svg"><path fill-rule="evenodd" clip-rule="evenodd" d="M6.482 2.972a3.125 3.125 0 0 0 .086 1.707l-1.417.491a4.624 4.624 0 0 1-.128-2.547c.192-.8.633-1.586 1.388-2.023 1.66-.958 3.721-.055 4.69 1.623.544.944.698 2.015.462 2.959l-1.455-.364c.135-.54.057-1.215-.306-1.845-.689-1.192-1.91-1.496-2.64-1.073-.29.166-.55.53-.68 1.072Z" fill="#7E839C"/><path fill-rule="evenodd" clip-rule="evenodd" d="M15.518 2.972a3.126 3.126 0 0 1-.086 1.707l1.417.491c.286-.825.322-1.74.128-2.547-.192-.8-.633-1.586-1.388-2.023-1.66-.958-3.721-.055-4.69 1.623-.544.944-.698 2.015-.462 2.959l1.455-.364c-.135-.54-.057-1.215.306-1.845.689-1.192 1.91-1.496 2.641-1.073.289.166.55.53.68 1.072Z" fill="#7E839C"/><path fill-rule="evenodd" clip-rule="evenodd" d="M10.25 22.5V5h1.5v17.5h-1.5Z" fill="#7E839C"/><path fill-rule="evenodd" clip-rule="evenodd" d="M20.5 12.75h-19v-1.5h19v1.5Z" fill="#7E839C"/><path fill-rule="evenodd" clip-rule="evenodd" d="M.25 6c0-.967.784-1.75 1.75-1.75h18c.966 0 1.75.783 1.75 1.75v5.5c0 .605-.43 1.11-1 1.225V22A1.75 1.75 0 0 1 19 23.75H3A1.75 1.75 0 0 1 1.25 22v-9.275c-.57-.116-1-.62-1-1.225V6ZM2 5.75a.25.25 0 0 0-.25.25v5.275c.57.116 1 .62 1 1.225V22c0 .138.112.25.25.25h16a.25.25 0 0 0 .25-.25v-9.5c0-.605.43-1.11 1-1.225V6a.25.25 0 0 0-.25-.25H2Z" fill="#7E839C"/></svg>
